#!OML:ASF H:\Pregnant\Project 1\Capture day 1\Session 1\femalepreg.ASF
:FULLY-SPECIFIED
:DEGREES
269
root 3.73796 13.639 7.34427 32.5824 -9.20243 -0.866797
lowerback 12.0599 -0.581817 -3.06053
upperback 0.952814 -1.17528 0.111778
thorax -5.70152 -0.499647 2.04116
lowerneck -39.9718 -9.06104 -5.3021
upperneck 2.29643 -11.3946 13.9328
head 7.73282 -4.0218 3.82084
rclavicle 2.0276e-014 1.59028e-014
rhumerus -47.05 44.8206 -100.296
rradius 28.8409
rwrist -5.23252
rhand -59.3234 -19.0542
rfingers 7.12502
rthumb -31.5075 -46.3577
lclavicle 2.0276e-014 1.59028e-014
lhumerus -44.0782 -20.6296 93.5365
lradius 19.596
lwrist 11.9272
lhand -53.917 -67.1595
lfingers 7.12502
lthumb -26.3439 -38.9693
rfemur -87.4188 -1.95339 15.5709
rtibia 69.526
rfoot -11.1928 -9.14535
rtoes -8.33743
lfemur -83.1783 7.65903 -19.1858
ltibia 63.1751
lfoot -9.24551 5.19367
ltoes -5.84462
270
root 3.73989 13.6808 7.39973 32.7024 -9.26283 -0.860926
lowerback 11.6929 -0.562849 -3.06102
upperback 0.82763 -1.13904 0.12752
thorax -5.63048 -0.481729 2.04644
lowerneck -39.8634 -9.12687 -5.38944
upperneck 2.32019 -11.4523 13.9745
head 7.7424 -4.0485 3.8375
rclavicle 6.36111e-015 -5.1684e-015
rhumerus -46.9977 44.7505 -100.423
rradius 28.2153
rwrist -4.82336
rhand -58.9111 -17.4401
rfingers 7.12502
rthumb -31.1146 -44.8197
lclavicle 6.36111e-015 -5.1684e-015
lhumerus -44.0807 -20.8545 93.869
lradius 19.4617
lwrist 12.1274
lhand -53.3755 -62.8684
lfingers 7.12502
lthumb -25.8254 -34.6017
rfemur -87.0237 -1.83655 15.4148
rtibia 69.1502
rfoot -11.3637 -9.26933
rtoes -8.36218
lfemur -82.7448 7.62324 -19.1999
ltibia 62.7701
lfoot -9.36372 5.29739
ltoes -5.95271
271
root 3.7419 13.7223 7.45462 32.8319 -9.32042 -0.859834
lowerback 11.3079 -0.546592 -3.06247
upperback 0.693294 -1.10559 0.150867
thorax -5.55828 -0.464948 2.06071
lowerneck -39.7636 -9.18806 -5.47051
upperneck 2.36862 -11.5063 13.9946
head 7.75888 -4.07419 3.84623
rclavicle -2.34566e-014 2.10712e-014
rhumerus -46.9511 44.6972 -100.538
rradius 27.6131
rwrist -4.35542
rhand -58.4349 -15.9889
rfingers 7.12502
rthumb -30.6607 -43.4545
lclavicle -2.34566e-014 2.10712e-014
lhumerus -44.1168 -21.1443 94.2616
lradius 19.3813
lwrist 12.41
lhand -52.7293 -58.3049
lfingers 7.12502
lthumb -25.2065 -29.9495
rfemur -86.6402 -1.71712 15.2627
rtibia 68.7719
rfoot -11.5351 -9.39506
rtoes -8.39986
lfemur -82.3272 7.58943 -19.2121
ltibia 62.3647
lfoot -9.47031 5.39779
ltoes -6.08285
272
root 3.74393 13.763 7.5089 32.9779 -9.37981 -0.86684
lowerback 10.8953 -0.531961 -3.06534
upperback 0.547666 -1.0733 0.181433
thorax -5.48188 -0.448535 2.08342
lowerneck -39.5988 -9.2571 -5.59231
upperneck 2.37422 -11.558 14.0524
head 7.77937 -4.09806 3.84731
rclavicle -5.1684e-015 2.70347e-014
rhumerus -46.8961 44.641 -100.621
rradius 27.0447
rwrist -3.84959
rhand -57.7971 -14.5923
rfingers 7.12502
rthumb -30.0523 -42.1701
lclavicle -5.1684e-015 2.70347e-014
lhumerus -44.1711 -21.4667 94.6885
lradius 19.3431
lwrist 12.7647
lhand -51.9547 -53.5317
lfingers 7.12502
lthumb -24.4641 -25.0739
rfemur -86.2798 -1.58752 15.1128
rtibia 68.3957
rfoot -11.7046 -9.52378
rtoes -8.44414
lfemur -81.9359 7.56295 -19.2203
ltibia 61.9654
lfoot -9.56866 5.49507
ltoes -6.22147
273
root 3.74567 13.8025 7.56194 33.1427 -9.43389 -0.876617
lowerback 10.4607 -0.520494 -3.07207
upperback 0.389469 -1.04482 0.217709
thorax -5.40552 -0.433641 2.11484
lowerneck -39.5004 -9.30452 -5.65177
upperneck 2.45537 -11.6008 14.0258
head 7.80068 -4.1218 3.83828
rclavicle 3.93594e-014 -2.50469e-014
rhumerus -46.8264 44.573 -100.668
rradius 26.5177
rwrist -3.31299
rhand -56.9726 -13.2267
rfingers 7.12502
rthumb -29.2653 -40.9445
lclavicle 3.93594e-014 -2.50469e-014
lhumerus -44.2259 -21.8146 95.131
lradius 19.3399
lwrist 13.2137
lhand -50.9976 -48.5628
lfingers 7.12502
lthumb -23.5463 -19.9841
rfemur -85.9505 -1.45325 14.9628
rtibia 68.0273
rfoot -11.8716 -9.65801
rtoes -8.49174
lfemur -81.5797 7.54094 -19.2304
ltibia 61.5712
lfoot -9.65446 5.58415
ltoes -6.38689
274
root 3.74669 13.84 7.61297 33.3424 -9.47731 -0.882214
lowerback 9.99567 -0.514959 -3.09238
upperback 0.210568 -1.02472 0.260197
thorax -5.33251 -0.422112 2.16151
lowerneck -39.3903 -9.34198 -5.69679
upperneck 2.54281 -11.6354 13.9782
head 7.81924 -4.14397 3.82133
rclavicle -1.35174e-014 -1.31198e-014
rhumerus -46.7583 44.4966 -100.693
rradius 26.0391
rwrist -2.72121
rhand -55.9778 -12.0284
rfingers 7.12502
rthumb -28.315 -39.9079
lclavicle -1.35174e-014 -1.31198e-014
lhumerus -44.2719 -22.1622 95.5669
lradius 19.3594
lwrist 13.7312
lhand -49.8458 -43.5874
lfingers 7.12502
lthumb -22.441 -14.8711
rfemur -85.6824 -1.31912 14.8078
rtibia 67.6774
rfoot -12.0323 -9.80095
rtoes -8.54216
lfemur -81.2868 7.52251 -19.2519
ltibia 61.1841
lfoot -9.72234 5.65598
ltoes -6.58753
275
root 3.74717 13.8762 7.66211 33.5514 -9.50422 -0.876443
lowerback 9.5332 -0.518107 -3.12774
upperback 0.014995 -1.01781 0.307719
thorax -5.27685 -0.416051 2.2241
lowerneck -39.2595 -9.36419 -5.72358
upperneck 2.63275 -11.6564 13.9094
head 7.83192 -4.16259 3.79683
rclavicle -3.26007e-014 -1.98785e-015
rhumerus -46.6794 44.4015 -100.683
rradius 25.6
rwrist -2.02654
rhand -54.8355 -10.973
rfingers 7.12502
rthumb -27.2228 -39.0287
lclavicle -3.26007e-014 -1.98785e-015
lhumerus -44.3078 -22.4991 95.9896
lradius 19.3951
lwrist 14.3111
lhand -48.5532 -38.9288
lfingers 7.12502
lthumb -21.1999 -10.0681
rfemur -85.4425 -1.19403 14.645
rtibia 67.3452
rfoot -12.1964 -9.95066
rtoes -8.59571
lfemur -81.022 7.4957 -19.2842
ltibia 60.7952
lfoot -9.77399 5.71521
ltoes -6.81135
